# AST/ASF file generated using VICON BodyLanguage
# -----------------------------------------------
:version 1.10
:name VICON
:units
  mass 1.0
  length 0.45
  angle deg
:documentation
   .ast/.asf automatically generated from VICON data using
   VICON BodyBuilder and BodyLanguage model FoxedUp or BRILLIANT.MOD
:root
   order TX TY TZ RX RY RZ
   axis XYZ
   position 0 0 0  
   orientation 0 0 0 
:bonedata
  begin
     id 1 
     name lhipjoint
     direction 0.623415 -0.642378 0.445763 
     length 2.49859 
     axis 0 0 0  XYZ
  end
  begin
     id 2 
     name lfemur
     direction 0.34202 -0.939693 0  
     length 6.69689  
     axis 0 0 20  XYZ
    dof rx ry rz
    limits (-160.0 20.0)
           (-70.0 70.0)
           (-60.0 70.0)
  end
  begin
     id 3 
     name ltibia
     direction 0.34202 -0.939693 0   
     length 7.37574   
     axis 0 0 20   XYZ
    dof rx
    limits (-10.0 170.0)
  end
  begin
     id 4 
     name lfoot
     direction 0.084323 -0.231675 0.969132   
     length 2.09111   
     axis -90 7.62852e-016 20   XYZ
    dof rx rz
    limits (-45.0 90.0)
           (-70.0 20.0)
  end
  begin
     id 5 
     name ltoes
     direction 1.5357e-011 -4.21957e-011 1   
     length 1.04989   
     axis -90 7.62852e-016 20   XYZ
    dof rx
    limits (-90.0 20.0)
  end
  begin
     id 6 
     name rhipjoint
     direction -0.605402 -0.653903 0.45376   
     length 2.45455  
     axis 0 0 0  XYZ 
  end
  begin
     id 7 
     name rfemur
     direction -0.34202 -0.939693 0   
     length 6.64523   
     axis 0 0 -20   XYZ
    dof rx ry rz
    limits (-160.0 20.0)
           (-70.0 70.0)
           (-70.0 60.0)
  end
  begin
     id 8 
     name rtibia
     direction -0.34202 -0.939693 0   
     length 7.3339   
     axis 0 0 -20   XYZ
    dof rx
    limits (-10.0 170.0)
 end
 begin
     id 9 
     name rfoot
     direction -0.120854 -0.332043 0.93549   
     length 2.23135  
     axis -90 -7.62852e-016 -20   XYZ
    dof rx rz
    limits (-45.0 90.0)
           (-20.0 70.0)
  end
  begin
     id 10 
     name rtoes
     direction -1.53563e-011 -4.21914e-011 1   
     length 1.10614   
     axis -90 -7.62852e-016 -20   XYZ
    dof rx
    limits (-90.0 20.0)
  end
  begin
     id 11 
     name lowerback
     direction 0.0319682 0.998615 -0.0417941   
     length 2.02718   
     axis 0 0 0   XYZ
    dof rx ry rz
    limits (-20.0 45.0)
           (-30.0 30.0)
           (-30.0 30.0)
  end
  begin
     id 12 
     name upperback
     direction 7.63181e-005 0.995808 0.0914691   
     length 1.97539   
     axis 0 0 0   XYZ
    dof rx ry rz
    limits (-20.0 45.0)
           (-30.0 30.0)
           (-30.0 30.0)
  end
  begin
     id 13 
     name thorax
     direction -0.016423 0.993627 0.111514   
     length 2.00349   
     axis 0 0 0   XYZ
    dof rx ry rz
    limits (-20.0 45.0)
           (-30.0 30.0)
           (-30.0 30.0)
  end
  begin
     id 14 
     name lowerneck
     direction -0.174763 0.981668 -0.0760716   
     length 1.71436   
     axis 0 0 0   XYZ
    dof rx ry rz
    limits (-20.0 45.0)
           (-30.0 30.0)
           (-30.0 30.0)
  end
  begin
     id 15 
     name upperneck
     direction 0.345458 0.934587 -0.0848868   
     length 1.72805   
     axis 0 0 0   XYZ
    dof rx ry rz
    limits (-20.0 45.0)
           (-30.0 30.0)
           (-30.0 30.0)
  end
  begin
     id 16
     name head
     direction 0.13001 0.989848 -0.0574291  
     length 1.767  
     axis 0 0 0   XYZ
    dof rx ry rz
    limits (-20.0 45.0)
           (-30.0 30.0)
           (-30.0 30.0)
  end
  begin
     id 17 
     name lclavicle
     direction 0.952951 0.290122 0.0878234  
     length 3.54654  
     axis 0 0 0   XYZ
    dof ry rz
    limits (-20.0 10.0)
           (0.0 20.0)
  end
  begin
     id 18 
     name lhumerus
     direction 1 -4.48957e-011 -4.56525e-028   
     length 5.19807   
     axis 180 -30 -90   XYZ
    dof rx ry rz
    limits (-60.0 90.0)
           (-90.0 90.0)
           (-90.0 90.0)
  end
  begin
     id 19
     name lradius
     direction 1 -4.48979e-011 -2.0317e-027   
     length 3.0937   
     axis 180 -30 -90   XYZ
    dof rx
    limits (-10.0 170.0)
  end
  begin
     id 20
     name lwrist
     direction 1 -4.48953e-011 -3.05809e-027   
     length 1.54685   
     axis 8.48514e-016 90 90   XYZ
    dof ry
    limits (-180.0 0.0)
 end
  begin
     id 21 
     name lhand
     direction 1 -4.48952e-011 -6.11639e-027   
     length 0.672632   
     axis 3.9013e-015 90 90   XYZ
    dof rx rz
    limits (-90.0 90.0)
           (-45.0 45.0)
  end
  begin
     id 22 
     name lfingers
     direction 1 -4.48925e-011 -1.22426e-026   
     length 0.542293   
     axis 7.80276e-015 90 90   XYZ
    dof rx
    limits (0.0 90.0)
  end
  begin
     id 23
     name lthumb
     direction 0.707107 -6.3486e-011 0.707107   
     length 0.778628   
     axis -90 45 5.37419e-014   XYZ
    dof rx rz
    limits (-45.0 45.0)
           (-45.0 45.0)
  end
  begin
     id 24 
     name rclavicle
     direction -0.960732 0.273675 -0.0457849   
     length 3.52079  
     axis 0 0 0   XYZ 
    dof ry rz
    limits (-10.0 20.0)
           (-20.0 0.0)
  end
  begin
     id 25 
     name rhumerus
     direction -1 -4.48976e-011 -1.63613e-027  
     length 5.45222   
     axis 180 30 90   XYZ
    dof rx ry rz
    limits (-90.0 60.0)
           (-90.0 90.0)
           (-90.0 90.0)
  end
  begin
     id 26 
     name rradius
     direction -1 -4.48957e-011 -7.00033e-028   
     length 3.01284   
     axis 180 30 90   XYZ
    dof rx
    limits (-10.0 170.0)
  end
  begin
     id 27 
     name rwrist
     direction -1 -4.48983e-011 -3.05543e-027   
     length 1.50642   
     axis 8.48514e-016 -90 -90   XYZ
    dof ry
    limits (-180.0 0.0)
  end
  begin
     id 28
     name rhand
     direction -1 -4.48984e-011 -6.11072e-027   
     length 0.622296   
     axis 3.9013e-015 -90 -90   XYZ
    dof rx rz
    limits (-90.0 90.0)
           (-45.0 45.0)
  end
  begin
     id 29
     name rfingers
     direction -1 -4.48865e-011 -1.22637e-026   
     length 0.501711   
     axis 7.80276e-015 -90 -90   XYZ
    dof rx
    limits (0.0 90.0)
  end
  begin
     id 30
     name rthumb
     direction -0.707107 -6.34932e-011 0.707107   
     length 0.72036   
     axis -90 -45 -5.37419e-014   XYZ
    dof rx rz
    limits (-45.0 45.0)
           (-45.0 45.0)
  end
:hierarchy
  begin
    root lhipjoint rhipjoint lowerback
    lhipjoint lfemur
    lfemur ltibia
    ltibia lfoot
    lfoot ltoes
    rhipjoint rfemur
    rfemur rtibia
    rtibia rfoot
    rfoot rtoes
    lowerback upperback
    upperback thorax
    thorax lowerneck lclavicle rclavicle
    lowerneck upperneck
    upperneck head
    lclavicle lhumerus
    lhumerus lradius
    lradius lwrist
    lwrist lhand lthumb
    lhand lfingers
    rclavicle rhumerus
    rhumerus rradius
    rradius rwrist
    rwrist rhand rthumb
    rhand rfingers
  end

#!OML:ASF H:\Not Pregnant\Project 1\Capture day 1\Session 1\non-pregnant.ASF
:FULLY-SPECIFIED
:DEGREES
38
root -7.03674 15.5798 37.3251 -172.191 4.62297 -172.316
lowerback 5.71757 2.53157 9.0505
upperback -6.35857 4.8221 1.12397
thorax -9.43265 1.91451 -4.51597
lowerneck 9.82715 -7.09678 -30.9688
upperneck -8.1129 -16.167 42.4883
head 3.07443 -10.7339 21.3722
rclavicle 7.94517e-015 6.55989e-015
rhumerus -37.1818 18.2097 -100.985
rradius 102.9
rwrist -2.38796
rhand -20.0747 -2.19207
rfingers 7.12502
rthumb 6.26774 -32.0793
lclavicle 7.94517e-015 6.55989e-015
lhumerus -52.1808 -3.29009 87.5467
lradius 120.037
lwrist 36.346
lhand -14.6345 -11.4916
lfingers 7.12502
lthumb 11.5172 18.1719
rfemur -6.00411 -2.84265 32.0226
rtibia 19.7272
rfoot -23.7349 15.9778
rtoes -6.37793
lfemur -78.2648 12.441 -20.8457
ltibia 92.877
lfoot 2.45203 -6.73225
ltoes -26.5206
39
root -7.05388 15.5731 37.2512 -172.148 4.84129 -172.402
lowerback 5.62017 2.4865 8.98081
upperback -6.35701 4.74452 1.13663
thorax -9.38871 1.88506 -4.44832
lowerneck 9.66327 -7.03945 -30.9488
upperneck -8.01699 -16.0016 42.3559
head 3.03626 -10.6164 21.3091
rclavicle 1.32347e-014 2.6985e-014
rhumerus -37.3061 18.5796 -101.289
rradius 102.297
rwrist -2.01114
rhand -19.6271 -1.83405
rfingers 7.12502
rthumb 6.6998 -31.7081
lclavicle 1.32347e-014 2.6985e-014
lhumerus -52.4041 -3.38538 87.551
lradius 120.172
lwrist 36.4113
lhand -14.7153 -11.471
lfingers 7.12502
lthumb 11.4394 18.1969
rfemur -5.72286 -2.39304 31.8392
rtibia 19.6897
rfoot -23.8395 15.6328
rtoes -6.76655
lfemur -77.5857 12.443 -20.6337
ltibia 90.9296
lfoot 3.14295 -6.88188
ltoes -26.6677
40
root -7.07126 15.5668 37.175 -172.098 5.03829 -172.488
lowerback 5.49231 2.44229 8.91037
upperback -6.3609 4.66593 1.14663
thorax -9.33253 1.85603 -4.38135
lowerneck 9.53258 -6.97805 -30.9269
upperneck -7.92352 -15.8483 42.2396
head 2.9987 -10.5113 21.2569
rclavicle -1.06039e-014 -9.93923e-016
rhumerus -37.4672 18.8931 -101.583
rradius 101.666
rwrist -1.69102
rhand -19.2055 -1.54403
rfingers 7.12502
rthumb 7.10682 -31.4047
lclavicle -1.06039e-014 -9.93923e-016
lhumerus -52.6159 -3.51208 87.5889
lradius 120.244
lwrist 36.4643
lhand -14.8241 -11.3954
lfingers 7.12502
lthumb 11.3344 18.2783
rfemur -5.4352 -1.9361 31.6599
rtibia 19.6374
rfoot -23.9317 15.2584
rtoes -7.16583
lfemur -76.8084 12.3814 -20.3545
ltibia 88.8675
lfoot 3.83101 -7.01591
ltoes -26.907
41
root -7.0893 15.5608 37.0961 -172.039 5.21979 -172.578
lowerback 5.33034 2.39837 8.84272
upperback -6.36963 4.58545 1.15322
thorax -9.26114 1.82689 -4.31753
lowerneck 9.40884 -6.91374 -30.9212
upperneck -7.81107 -15.71 42.144
head 2.97612 -10.4175 21.2196
rclavicle 1.40951e-014 9.93923e-015
rhumerus -37.6682 19.169 -101.874
rradius 100.993
rwrist -1.40344
rhand -18.8293 -1.32455
rfingers 7.12502
rthumb 7.4699 -31.1727
lclavicle 1.40951e-014 9.93923e-015
lhumerus -52.8179 -3.65601 87.6532
lradius 120.255
lwrist 36.4598
lhand -14.9273 -11.2829
lfingers 7.12502
lthumb 11.2348 18.3963
rfemur -5.13694 -1.47547 31.478
rtibia 19.5595
rfoot -24.0146 14.8642
rtoes -7.59915
lfemur -75.9403 12.2644 -20.0184
ltibia 86.7015
lfoot 4.52162 -7.13375
ltoes -27.1802
42
root -7.10813 15.5553 37.0145 -171.97 5.38544 -172.668
lowerback 5.14504 2.35632 8.78459
upperback -6.38676 4.5075 1.15483
thorax -9.18393 1.79868 -4.26373
lowerneck 9.29919 -6.84631 -30.93
upperneck -7.68558 -15.5867 42.0704
head 2.96547 -10.3361 21.1985
rclavicle 2.86467e-014 4.12478e-015
rhumerus -37.9095 19.4017 -102.161
rradius 100.264
rwrist -1.17189
rhand -18.5178 -1.15458
rfingers 7.12502
rthumb 7.77056 -30.9918
lclavicle 2.86467e-014 4.12478e-015
lhumerus -53.0108 -3.82297 87.745
lradius 120.205
lwrist 36.3891
lhand -15.0191 -11.1354
lfingers 7.12502
lthumb 11.1463 18.5485
rfemur -4.82205 -1.01431 31.296
rtibia 19.4495
rfoot -24.0907 14.4585
rtoes -8.05869
lfemur -74.9856 12.0919 -19.6246
ltibia 84.4444
lfoot 5.21593 -7.22983
ltoes -27.4387
43
root -7.1279 15.5501 36.9301 -171.893 5.5427 -172.757
lowerback 4.92538 2.31899 8.73709
upperback -6.3999 4.43277 1.15186
thorax -9.08039 1.77266 -4.219
lowerneck 9.18808 -6.7882 -30.9333
upperneck -7.56265 -15.4791 42.0023
head 2.96165 -10.2636 21.1748
rclavicle 4.53012e-015 8.62228e-015
rhumerus -38.1676 19.6029 -102.436
rradius 99.4629
rwrist -1.00574
rhand -18.304 -1.01039
rfingers 7.12502
rthumb 7.97692 -30.8399
lclavicle 4.53012e-015 8.62228e-015
lhumerus -53.1709 -4.00475 87.859
lradius 120.09
lwrist 36.2537
lhand -15.0858 -10.982
lfingers 7.12502
lthumb 11.082 18.7054
rfemur -4.486 -0.559077 31.1106
rtibia 19.2994
rfoot -24.1526 14.0639
rtoes -8.51464
lfemur -73.95 11.87 -19.1776
ltibia 82.1134
lfoot 5.8931 -7.29427
ltoes -27.6856
44
root -7.14872 15.5452 36.8433 -171.809 5.68938 -172.843
lowerback 4.69221 2.28151 8.69946
upperback -6.42219 4.35961 1.14843
thorax -8.97836 1.74693 -4.18034
lowerneck 9.08974 -6.72614 -30.9414
upperneck -7.43953 -15.3736 41.9424
head 2.95799 -10.1946 21.1587
rclavicle 2.23773e-014 -1.79403e-014
rhumerus -38.4665 19.7765 -102.704
rradius 98.5891
rwrist -0.915558
rhand -18.1787 -0.892407
rfingers 7.12502
rthumb 8.09787 -30.7173
lclavicle 2.23773e-014 -1.79403e-014
lhumerus -53.3252 -4.18947 87.9979
lradius 119.921
lwrist 36.06
lhand -15.1221 -10.8215
lfingers 7.12502
lthumb 11.047 18.8678
rfemur -4.12677 -0.115107 30.9254
rtibia 19.1032
rfoot -24.1988 13.6809
rtoes -8.99563
lfemur -72.8428 11.595 -18.6782
ltibia 79.726
lfoot 6.5275 -7.31668
ltoes -27.9204
45
root -7.17048 15.5404 36.7543 -171.72 5.83637 -172.925
lowerback 4.44696 2.24684 8.67219
upperback -6.45249 4.29182 1.144
thorax -8.87688 1.7233 -4.14903
lowerneck 9.00895 -6.65914 -30.9495
upperneck -7.31147 -15.2701 41.8869
head 2.95346 -10.129 21.1471
rclavicle -2.16893e-014 -1.35919e-014
rhumerus -38.8142 19.9213 -102.967
rradius 97.6493
rwrist -0.900006
rhand -18.1434 -0.814807
rfingers 7.12502
rthumb 8.13194 -30.6383
lclavicle -2.16893e-014 -1.35919e-014
lhumerus -53.4759 -4.3746 88.1538
lradius 119.697
lwrist 35.8136
lhand -15.1204 -10.6895
lfingers 7.12502
lthumb 11.0486 18.9997
rfemur -3.73941 0.323789 30.7416
rtibia 18.8569
rfoot -24.2173 13.3201
rtoes -9.47549
lfemur -71.6715 11.2792 -18.1291
ltibia 77.3024
lfoot 7.08997 -7.29931
ltoes -28.1668
46
root -7.19301 15.5359 36.6631 -171.625 5.9855 -172.994
lowerback 4.19419 2.2144 8.6565
upperback -6.49624 4.23065 1.14229
thorax -8.78488 1.70222 -4.1224
lowerneck 8.95629 -6.58264 -30.9615
upperneck -7.1825 -15.1638 41.8363
head 2.94332 -10.0655 21.1436
rclavicle 1.39033e-014 5.69021e-015
rhumerus -39.2231 20.038 -103.229
rradius 96.6555
rwrist -0.959493
rhand -18.1832 -0.795781
rfingers 7.12502
rthumb 8.09356 -30.6208
lclavicle 1.39033e-014 5.69021e-015
lhumerus -53.633 -4.55456 88.3277
lradius 119.423
lwrist 35.5263
lhand -15.0738 -10.5908
lfingers 7.12502
lthumb 11.0935 19.096
rfemur -3.32347 0.75839 30.5671
rtibia 18.5566
rfoot -24.1998 12.9794
rtoes -9.95874
lfemur -70.4467 10.9249 -17.5289
ltibia 74.8581
lfoot 7.58823 -7.25111
ltoes -28.3852
47
root -7.2163 15.532 36.5696 -171.527 6.14585 -173.059
lowerback 3.93408 2.18801 8.64521
upperback -6.54904 4.1792 1.13997
thorax -8.69717 1.68562 -4.10008
lowerneck 8.91765 -6.50064 -30.9701
upperneck -7.04267 -15.0568 41.7848
head 2.93228 -10.0031 21.1408
rclavicle -6.47494e-014 -1.32378e-014
rhumerus -39.6815 20.1214 -103.485
rradius 95.6195
rwrist -1.08994
rhand -18.2607 -0.860967
rfingers 7.12502
rthumb 8.01874 -30.6889
lclavicle -6.47494e-014 -1.32378e-014
lhumerus -53.7857 -4.72957 88.5181
lradius 119.102
lwrist 35.2022
lhand -14.9894 -10.5262
lfingers 7.12502
lthumb 11.175 19.1562
rfemur -2.87531 1.19301 30.3934
rtibia 18.1994
rfoot -24.1378 12.6691
rtoes -10.4147
lfemur -69.1671 10.5317 -16.8862
ltibia 72.4031
lfoot 8.06636 -7.18618
ltoes -28.542
48
root -7.24016 15.5284 36.4737 -171.428 6.31441 -173.11
lowerback 3.6672 2.16874 8.64554
upperback -6.60384 4.13843 1.13774
thorax -8.60587 1.67387 -4.08509
lowerneck 8.8743 -6.42649 -30.9689
upperneck -6.89697 -14.9611 41.7301
head 2.92713 -9.94574 21.1295
rclavicle 2.4763e-014 3.35092e-014
rhumerus -40.164 20.1783 -103.733
rradius 94.546
rwrist -1.29952
rhand -18.3737 -1.03356
rfingers 7.12502
rthumb 7.90971 -30.8656
lclavicle 2.4763e-014 3.35092e-014
lhumerus -53.9173 -4.90475 88.727
lradius 118.74
lwrist 34.8591
lhand -14.8853 -10.4849
lfingers 7.12502
lthumb 11.2754 19.192
rfemur -2.39141 1.62393 30.2294
rtibia 17.7857
rfoot -24.0326 12.3856
rtoes -10.8553
lfemur -67.8414 10.0955 -16.1951
ltibia 69.9478
lfoot 8.60895 -7.13964
ltoes -28.5241
